ply
format ascii 1.0
element vertex 33
property float x
property float y
property float z
property uchar red
property uchar green
property uchar blue
property int object_id
element face 56
property list uchar uint vertex_indices
end_header
-2.44737982749938965 -3.05660486221313477 -0.408702969551086426 254 254 254 1
-2.44736981391906738 -3.0565948486328125 -1.40870296955108643 0 254 0 1
2.45261025428771973 -3.0565948486328125 -1.40870296955108643 0 254 0 1
-2.44736981391906738 2.04338502883911133 -1.40870296955108643 0 254 0 1
2.45261025428771973 2.04338502883911133 -1.40870296955108643 0 254 0 1
-2.44736981391906738 -3.0565948486328125 -1.55870306491851807 0 254 0 1
2.45261025428771973 -3.0565948486328125 -1.55870306491851807 0 254 0 1
-2.44736981391906738 2.04338502883911133 -1.55870306491851807 0 254 0 1
2.45261025428771973 2.04338502883911133 -1.55870306491851807 0 254 0 1
-2.44736981391906738 -3.0565948486328125 1.29129707813262939 0 0 254 1
2.45261025428771973 -3.0565948486328125 1.29129707813262939 0 0 254 1
-2.44736981391906738 2.04338502883911133 1.29129707813262939 0 0 254 1
2.45261025428771973 2.04338502883911133 1.29129707813262939 0 0 254 1
-2.44736981391906738 -3.0565948486328125 1.44129717350006104 0 0 254 1
2.45261025428771973 -3.0565948486328125 1.44129717350006104 0 0 254 1
-2.44736981391906738 2.04338502883911133 1.44129717350006104 0 0 254 1
2.45261025428771973 2.04338502883911133 1.44129717350006104 0 0 254 1
-2.44736981391906738 -3.0565948486328125 -1.40870296955108643 254 0 0 1
-2.59737992286682129 -3.20660495758056641 -1.40870296955108643 254 0 0 1
2.45261025428771973 -3.0565948486328125 -1.40870296955108643 254 0 0 1
2.60262036323547363 -3.20660495758056641 -1.40870296955108643 254 0 0 1
-2.44736981391906738 2.04338502883911133 -1.40870296955108643 254 0 0 1
-2.59737992286682129 2.19339513778686523 -1.40870296955108643 254 0 0 1
2.45261025428771973 2.04338502883911133 -1.40870296955108643 254 0 0 1
2.60262036323547363 2.19339513778686523 -1.40870296955108643 254 0 0 1
-2.59737992286682129 -3.20660495758056641 1.29129707813262939 254 0 0 1
-2.44736981391906738 -3.0565948486328125 1.29129707813262939 254 0 0 1
2.60262036323547363 -3.20660495758056641 1.29129707813262939 254 0 0 1
2.45261025428771973 -3.0565948486328125 1.29129707813262939 254 0 0 1
-2.59737992286682129 2.19339513778686523 1.29129707813262939 254 0 0 1
-2.44736981391906738 2.04338502883911133 1.29129707813262939 254 0 0 1
2.60262036323547363 2.19339513778686523 1.29129707813262939 254 0 0 1
2.45261025428771973 2.04338502883911133 1.29129707813262939 254 0 0 1
3 1 4 3
3 8 5 7
3 3 5 1
3 1 6 2
3 2 8 4
3 4 7 3
3 1 2 4
3 8 6 5
3 3 7 5
3 1 5 6
3 2 6 8
3 4 8 7
3 12 9 11
3 13 16 15
3 9 15 11
3 10 13 9
3 12 14 10
3 11 16 12
3 12 10 9
3 13 14 16
3 9 13 15
3 10 14 13
3 12 16 14
3 11 15 16
3 17 22 21
3 19 18 17
3 23 20 19
3 21 24 23
3 25 30 29
3 27 26 25
3 31 28 27
3 29 32 31
3 23 30 21
3 29 24 22
3 19 32 23
3 31 20 24
3 21 26 17
3 25 22 18
3 17 28 19
3 27 18 20
3 17 18 22
3 19 20 18
3 23 24 20
3 21 22 24
3 25 26 30
3 27 28 26
3 31 32 28
3 29 30 32
3 23 32 30
3 29 31 24
3 19 28 32
3 31 27 20
3 21 30 26
3 25 29 22
3 17 26 28
3 27 25 18
