ply
format ascii 1.0
element vertex 41
property float x
property float y
property float z
property uchar red
property uchar green
property uchar blue
property int object_id
element face 68
property list uchar uint vertex_indices
end_header
-1.35611820220947266 -4.31523466110229492 1.00000011920928955 254 254 254 1
-1.35610759258270264 -4.31522369384765625 1.1920928955078125e-07 0 254 0 0
3.79528212547302246 -4.31522369384765625 1.1920928955078125e-07 0 254 0 0
-1.35610759258270264 1.32909560203552246 1.1920928955078125e-07 0 254 0 0
3.79528212547302246 1.32909560203552246 1.1920928955078125e-07 0 254 0 0
-1.35610759258270264 -4.31522369384765625 -0.149999871850013733 0 254 0 0
3.79528212547302246 -4.31522369384765625 -0.149999871850013733 0 254 0 0
-1.35610759258270264 1.32909560203552246 -0.149999871850013733 0 254 0 0
3.79528212547302246 1.32909560203552246 -0.149999871850013733 0 254 0 0
-1.35610759258270264 -4.31522321701049805 2.70000004768371582 0 0 254 2
3.79529285430908203 -4.31522321701049805 2.70000004768371582 0 0 254 2
-1.35610759258270264 1.32910704612731934 2.70000004768371582 0 0 254 2
3.79529285430908203 1.32910704612731934 2.70000004768371582 0 0 254 2
-1.35610759258270264 -4.31522321701049805 2.85000014305114746 0 0 254 2
3.79529285430908203 -4.31522321701049805 2.85000014305114746 0 0 254 2
-1.35610759258270264 1.32910704612731934 2.85000014305114746 0 0 254 2
3.79529285430908203 1.32910704612731934 2.85000014305114746 0 0 254 2
-1.20650053024291992 -4.15687990188598633 0 254 0 0 1
-1.35510921478271484 -4.31367778778076172 0 254 0 0 1
3.64768314361572266 -4.15687990188598633 0 254 0 0 1
3.79629135131835938 -4.31367778778076172 0 254 0 0 1
-1.20650053024291992 1.17385530471801758 0 254 0 0 1
-1.35510921478271484 1.33065271377563477 0 254 0 0 1
3.64768314361572266 1.17385530471801758 0 254 0 0 1
3.79629135131835938 1.33065271377563477 0 254 0 0 1
-1.35510921478271484 -4.31367778778076172 2.70000004768371582 254 0 0 1
-1.20650053024291992 -4.15687990188598633 2.70000004768371582 254 0 0 1
3.79629135131835938 -4.31367778778076172 2.70000004768371582 254 0 0 1
3.64768314361572266 -4.15687990188598633 2.70000004768371582 254 0 0 1
-1.35510921478271484 1.33065271377563477 2.70000004768371582 254 0 0 1
-1.20650053024291992 1.17385530471801758 2.70000004768371582 254 0 0 1
3.79629135131835938 1.33065271377563477 2.70000004768371582 254 0 0 1
3.64768314361572266 1.17385530471801758 2.70000004768371582 254 0 0 1
0.5 -1.5 0 0 0 0 3
0.5 -1.5 2 0 0 0 3
0.5 -0.5 0 0 0 0 3
0.5 -0.5 2 0 0 0 3
1.5 -1.5 0 0 0 0 3
1.5 -1.5 2 0 0 0 3
1.5 -0.5 0 0 0 0 3
1.5 -0.5 2 0 0 0 3
3 1 4 3
3 8 7 5
3 3 5 1
3 1 6 2
3 2 8 4
3 4 7 3
3 1 2 4
3 8 5 6
3 3 7 5
3 1 5 6
3 2 6 8
3 4 8 7
3 12 9 11
3 13 15 16
3 9 15 11
3 10 13 9
3 12 14 10
3 11 16 12
3 12 10 9
3 13 16 14
3 9 13 15
3 10 14 13
3 12 16 14
3 11 15 16
3 17 22 21
3 19 18 17
3 23 20 19
3 21 24 23
3 25 30 29
3 27 26 25
3 31 28 27
3 29 32 31
3 23 30 21
3 29 22 24
3 19 32 23
3 31 24 20
3 21 26 17
3 25 18 22
3 17 28 19
3 27 20 18
3 17 18 22
3 19 20 18
3 23 24 20
3 21 22 24
3 25 26 30
3 27 28 26
3 31 32 28
3 29 30 32
3 23 32 30
3 29 24 31
3 19 28 32
3 31 20 27
3 21 30 26
3 25 22 29
3 17 26 28
3 27 18 25
3 34 35 33
3 36 39 35
3 40 37 39
3 38 33 37
3 39 33 35
3 36 38 40
3 34 36 35
3 36 40 39
3 40 38 37
3 38 34 33
3 39 37 33
3 36 34 38
